<svg width="73" height="73" viewBox="0 0 73 73" fill="none" xmlns="http://www.w3.org/2000/svg">
<path d="M63.6341 9.20027C63.3854 9.00455 62.9387 8.90223 62.5832 8.94405C62.2277 8.98587 61.6879 9.0289 61.3854 9.01773C60.6487 8.99628 60 9.59264 60.2733 10.0514C60.3774 10.2349 60.4155 10.432 60.3626 10.485C60.2963 10.5512 60.2554 10.7751 60.2408 10.9989C60.2387 11.3147 60.0926 11.513 59.4978 11.9248C58.7575 12.456 58.7575 12.456 58.2871 11.9591C58.0259 11.6714 57.805 11.2387 57.7935 10.9887C57.7709 10.4363 57.3527 9.99167 56.8132 10.0084C56.3264 9.99843 55.8102 10.4624 55.8073 10.9097C55.8043 11.3571 56.4844 11.9842 56.8143 11.8373C56.999 11.7571 57.2744 11.9 57.6796 12.3052C58.2286 12.8542 58.2413 12.9199 57.898 13.1064C57.6866 13.2394 57.356 13.4915 57.1573 13.6902C56.8262 14.0213 56.7472 14.0219 56.3159 13.5905C55.9891 13.2637 55.8727 12.9619 55.9014 12.5933C55.957 12.1455 55.892 12.0276 55.4723 11.8198C54.7771 11.4955 54.0115 11.8689 53.9674 12.5666C53.9368 13.2246 54.5511 13.839 55.0785 13.6776C55.3685 13.5968 55.6179 13.6872 55.9447 14.014C56.3499 14.4192 56.3626 14.4849 55.9928 14.6979C55.7814 14.8308 55.6087 15.082 55.6073 15.2925C55.6052 15.6083 54.9165 16.297 51.2759 19.6762C48.893 21.8761 46.7219 23.8903 46.457 24.1552L45.9671 24.619L44.9587 23.902C42.7586 22.3376 39.9854 21.869 37.6512 22.687C36.5302 23.076 36.1867 23.2888 35.0349 24.3621C33.9891 25.3295 33.578 25.8191 33.0585 26.783C32.2727 28.2223 31.7692 28.752 31.1502 28.8481C30.9132 28.876 30.5965 29.0097 30.4773 29.1289C30.2919 29.3143 30.3569 29.4323 30.7891 29.7321C31.2213 30.0318 31.3121 30.2286 31.2947 30.8734C31.28 33.1103 26.9938 36.6122 24.3364 36.5507C23.3366 36.531 23.271 36.492 22.6443 35.7593C21.9655 34.948 21.7157 34.9102 21.5009 35.5695C21.2459 36.3211 20.2545 37.025 18.1433 37.9337C14.4486 39.5369 12.661 41.246 11.6681 44.1735C10.6483 47.1802 11.5979 50.8317 14.1823 53.9725C15.5662 55.6212 15.7093 55.8703 15.5094 56.2531C15.3895 56.4776 15.1648 56.6238 14.8884 56.6388C14.3619 56.6686 14.1091 57.1045 14.3693 57.5501C14.5383 57.8516 14.4057 58.0104 11.7435 60.6726C9.1475 63.2686 8.9619 63.4803 9.22385 63.6628C9.45965 63.8192 9.73745 63.5936 12.2667 61.1428C14.9153 58.5465 15.0476 58.4403 15.3885 58.6223C15.7032 58.7781 15.8089 58.7248 16.3664 57.9843C16.7245 57.5477 17.0162 57.2037 17.0424 57.2299C17.0685 57.256 17.8148 57.8169 18.6656 58.4823C21.7292 60.8041 24.4991 61.7727 27.2378 61.4651C29.0155 61.2561 30.3616 60.6419 31.7379 59.4487C33.1805 58.1629 34.1371 56.7619 35.0461 54.5981C35.755 52.8434 36.2862 52.1031 37.4895 51.1873C37.8466 50.9086 37.8337 50.8693 37.1666 50.2816C36.1855 49.4065 36.0463 48.5785 36.609 47.0485C37.3193 45.0833 39.0573 42.9009 40.6157 42.0222C41.5798 41.4764 42.7243 41.5083 43.1678 42.0843C43.5851 42.6605 43.9279 42.553 44.0908 41.7888C44.2267 41.13 45.0474 40.3878 46.6851 39.4559C49.8813 37.6191 51.38 33.8199 50.2445 30.4327C50.0508 29.8682 49.5182 28.8323 49.0624 28.1116C48.4502 27.1815 48.2816 26.801 48.4406 26.6421C48.798 26.3108 56.4045 18.103 56.8157 17.6134C57.0544 17.3224 57.2921 17.1892 57.4364 17.2541C57.594 17.3057 57.9242 17.1061 58.3878 16.6426L59.103 15.9273L59.4682 16.4249C59.6506 16.6869 59.8188 17.1199 59.8171 17.3831C59.8 17.9753 59.9698 18.1716 60.627 18.2725C61.1659 18.361 61.8403 17.8434 61.8438 17.3171C61.8471 16.8171 61.1665 16.269 60.6921 16.3774C60.2573 16.4723 59.6548 16.0553 59.5528 15.556C59.5274 15.4245 59.714 15.0549 59.9923 14.7504L60.4699 14.1684L60.9399 14.7179C61.1879 15.0189 61.4479 15.4908 61.4987 15.78C61.6008 16.253 61.6531 16.3052 62.1524 16.4072C62.7437 16.5217 63.4313 16.0172 63.4349 15.4646C63.4384 14.9382 62.7709 14.4032 62.3747 14.6163C62.0975 14.7629 61.9138 14.6851 61.4563 14.2277C60.9465 13.7179 60.9078 13.5997 61.1208 13.2299C61.4268 12.7147 62.4029 12.3399 62.783 12.5611C63.268 12.8342 63.7991 12.1202 63.8848 11.0933C63.9144 10.5931 63.9707 10.0401 63.9982 9.85575C64.039 9.65811 63.8959 9.40906 63.6341 9.20027ZM45.0404 27.4803L31.0418 41.2959L31.3424 41.5965L31.6431 41.8972L42.3989 30.9844C48.2936 24.9852 54.2813 18.8406 55.699 17.3445C57.1037 15.8353 58.2692 14.6697 58.2687 14.7487C58.2802 14.9986 46.1847 27.5385 38.9 34.8232C35.1782 38.545 32.0917 41.71 32.0117 41.8684C31.958 42.0267 31.9829 42.237 32.1006 42.3547C32.2836 42.5377 33.0385 41.7827 39.4764 35.2141C43.4108 31.1751 47.5577 26.8453 48.6976 25.5746C49.8375 24.304 52.4215 21.537 54.4748 19.4314L58.1842 15.5913L55.1893 18.8215C53.5461 20.5954 51.2532 23.1236 50.0866 24.4471C47.6077 27.2397 46.9979 27.9279 41.1934 34.2291C38.3839 37.2739 36.7544 38.9556 36.6495 38.9037C36.5446 38.8518 35.6579 39.6339 34.5056 40.7862C32.5718 42.72 32.5321 42.7597 32.793 43.1001C32.9495 43.3096 32.9479 43.5464 32.7887 43.758C32.5762 44.0488 32.471 44.0495 32.1965 43.775C31.8566 43.4352 31.8566 43.4352 30.625 44.6406C29.9495 45.3161 28.8507 46.3365 28.2021 46.9329C27.2096 47.7947 27.0238 48.0327 27.0743 48.3482C27.1247 48.6899 26.8999 48.8625 24.5881 50.2592C22.2234 51.709 21.9456 51.9345 19.7605 54.0673C18.4362 55.3655 17.3245 56.3464 17.1666 56.3475C17.035 56.3484 16.7992 56.192 16.6558 55.9956L16.3818 55.6422L18.8199 53.0472C20.9532 50.7832 21.4309 50.1748 22.5748 48.2989C24.0111 45.9737 24.2764 45.6562 24.4724 45.8522C24.5639 45.9437 25.4641 45.122 27.0671 43.4668L29.5046 40.9508L29.1906 40.6897C28.7062 40.3113 29.2489 39.8209 29.7862 40.1463L30.1925 40.3936L32.007 38.5791C33.0004 37.5857 34.3378 36.3006 34.9995 35.7173C35.7804 35.0148 36.0323 34.7368 35.7419 34.8703C35.4911 34.9904 35.015 35.3619 34.6576 35.6932C34.2869 36.0378 33.9434 36.2506 33.865 36.1721C33.7735 36.0806 34.065 35.7629 34.7003 35.2061C35.2295 34.7553 37.0162 33.1778 38.6445 31.6802C40.2858 30.1958 42.8802 27.8366 44.4025 26.445C45.9379 25.0665 49.0091 22.2306 51.2201 20.1502C53.4442 18.083 55.4299 16.2542 55.6546 16.108C56.1967 15.6965 49.1123 22.5457 44.1341 27.2363C41.8171 29.4225 37.752 33.3308 35.1299 35.9006C30.6803 40.2457 30.349 40.6031 30.5581 40.8122C30.7673 41.0214 31.5353 40.2795 41.5868 30.4372C47.5198 24.6087 53.7043 18.555 55.333 16.9785C56.9618 15.402 58.4316 13.9844 58.6038 13.8123C58.7628 13.6533 58.9214 13.547 58.9606 13.5862C58.9998 13.6254 52.7482 19.877 45.0404 27.4803ZM58.8226 14.5608C58.6906 14.6143 58.7307 14.5219 58.9162 14.3365C59.1016 14.1511 59.194 14.111 59.1537 14.2297C59.0871 14.3485 58.9282 14.5075 58.8226 14.5608ZM31.5439 36.9769C31.5924 37.6081 31.1166 37.9271 30.7114 37.5218C30.5415 37.3519 30.5427 37.1677 30.7149 36.9955C31.0593 36.6512 30.7194 36.3113 30.192 36.4727C29.9679 36.5399 28.8834 37.3892 27.7848 38.3832C26.6863 39.351 25.5488 40.2532 25.2717 40.3734C24.5195 40.7073 23.4806 40.6221 23.0362 40.1776C22.631 39.7724 22.52 38.6548 22.8511 38.3237C23.116 38.0588 23.7075 38.147 23.929 38.4744C24.1636 38.815 23.8178 39.3699 23.4369 39.2803C22.9902 39.178 23.0653 39.7564 23.5242 40.0034C24.1143 40.3021 25.0254 39.8093 26.9442 38.1519C28.8232 36.5343 29.9325 35.9218 30.6948 36.0483C31.3257 36.1494 31.4693 36.3195 31.5439 36.9769ZM36.8783 42.1258C37.0845 42.7823 36.5386 43.7464 34.8945 45.6519C33.1443 47.6897 32.5439 48.9437 33.0004 49.5591C33.2611 49.9257 33.6045 49.7393 33.6078 49.2393C33.6112 48.7129 34.1776 48.6171 34.5168 49.0622C35.2084 49.9392 33.5325 50.6739 32.7221 49.8635C32.2254 49.3668 32.1802 48.2355 32.6197 47.43C32.8064 47.0604 33.7216 45.936 34.6493 44.9299C36.0146 43.4078 36.3201 42.9716 36.3889 42.5106C36.4727 41.7732 36.3028 41.6033 35.8789 42.0271C35.6405 42.2655 35.4825 42.2929 35.2864 42.0968C34.9073 41.7177 35.5692 41.1081 36.1203 41.3413C36.6714 41.5745 36.7367 41.6399 36.8783 42.1258Z" fill="#9C845E"/>
<path d="M29.7788 41.2779C29.6864 41.318 28.5606 42.4438 27.2623 43.7944C25.3015 45.8336 24.9169 46.2967 25.0737 46.4535C25.2306 46.6104 25.6673 46.2259 27.7733 44.12C29.8792 42.0141 30.2636 41.5773 30.1068 41.4205C30.0022 41.3159 29.8579 41.2511 29.7788 41.2779Z" fill="#9C845E"/>
<path d="M28.0346 44.3814C25.6108 46.8052 25.5311 46.911 25.7795 47.1594C26.0278 47.4077 26.1336 47.3281 28.5574 44.9043C30.9813 42.4805 31.0609 42.3747 30.8125 42.1263C30.5642 41.878 30.4584 41.9576 28.0346 44.3814Z" fill="#9C845E"/>
<path d="M31.2035 42.7027C31.1114 42.6901 29.9332 43.79 28.5954 45.1277C26.2643 47.4588 26.1847 47.5646 26.4331 47.8129C26.6814 48.0613 26.7872 47.9817 29.211 45.5578C31.2242 43.5446 31.6883 43.0021 31.5576 42.8714C31.453 42.7668 31.2957 42.6889 31.2035 42.7027Z" fill="#9C845E"/>
</svg>
