<svg width="270" height="217" viewBox="0 0 270 217" fill="none" xmlns="http://www.w3.org/2000/svg">
<path d="M134.924 0.700644C126.658 2.83398 112.258 15.7673 109.058 24.034C106.391 30.9673 105.991 40.7006 108.124 44.834C111.324 50.9673 112.924 51.634 128.924 52.5673C137.324 53.1006 138.524 52.9673 136.391 51.5006C125.991 44.434 120.258 35.9006 121.724 29.5006C124.258 17.9006 130.658 11.7673 140.258 11.7673C146.124 11.7673 155.458 14.9673 161.324 18.9673C164.524 21.1006 165.324 21.234 166.391 19.634C170.658 12.9673 163.591 3.76731 154.258 3.76731C151.591 3.76731 147.058 2.83398 144.524 1.76731C139.458 -0.366023 139.324 -0.366023 134.924 0.700644Z" fill="#9C845E"/>
<path d="M133.458 15.5007C130.124 16.1674 126.391 20.9674 126.258 24.7007C126.258 28.1674 129.458 30.1674 135.058 30.3007C142.124 30.5674 143.458 30.8341 144.124 32.7007C144.524 33.6341 145.991 34.4341 147.458 34.4341C150.124 34.4341 152.524 36.7007 151.191 37.9007C150.391 38.8341 144.658 35.9007 143.324 34.0341C142.791 33.1007 141.858 33.1007 140.658 34.0341C138.658 35.7674 128.658 32.9674 127.858 30.4341C126.924 27.6341 124.924 29.2341 124.924 32.7007C124.924 37.7674 129.324 44.5674 134.124 47.1007C140.658 50.4341 147.191 49.6341 153.724 44.7007C162.391 38.1674 164.524 30.7007 160.258 22.4341C157.991 18.0341 153.991 16.9674 154.391 20.7007C154.791 25.9007 154.124 28.7007 152.391 28.7007C150.924 28.7007 150.658 27.6341 151.058 25.2341C151.591 22.8341 150.791 20.5674 148.924 18.0341C145.991 14.4341 142.924 13.9007 133.458 15.5007ZM137.324 18.7007C136.258 20.4341 136.124 21.1007 135.858 25.5007C135.458 28.9674 132.924 26.8341 132.924 23.1007C132.924 21.3674 133.991 19.2341 135.324 18.5674C138.391 16.7007 138.658 16.8341 137.324 18.7007ZM146.258 21.7674C148.658 24.7007 146.658 26.5674 142.924 24.8341C141.058 24.0341 139.591 22.8341 139.591 22.1674C139.591 21.5007 140.258 21.3674 140.924 21.7674C141.724 22.1674 142.258 21.9007 142.258 21.2341C142.258 19.1007 144.258 19.5007 146.258 21.7674Z" fill="#9C845E"/>
<path d="M168.258 20.7007C166.791 23.5007 165.858 27.3674 165.991 29.3674C166.924 37.7674 155.858 50.9674 146.658 52.434C143.858 52.9674 140.258 53.7674 138.524 54.5674C136.791 55.234 132.524 55.7674 128.791 55.7674C117.858 55.7674 118.924 62.434 130.924 67.9007C137.724 70.9674 141.591 71.1007 144.658 68.034C146.524 66.1674 147.858 65.9007 151.324 66.9674C155.058 68.034 156.258 67.7674 159.324 65.234C161.324 63.634 164.658 61.7674 166.791 60.834C169.324 59.9007 171.458 57.3674 173.724 52.5674L176.924 45.7674L173.591 45.3674C171.858 45.1007 169.058 45.634 167.591 46.434C165.991 47.234 164.391 47.7674 164.124 47.3674C163.858 47.1007 165.991 45.7674 168.924 44.434C171.858 43.1007 174.258 41.5007 174.258 40.834C174.258 40.1674 174.791 39.9007 175.324 40.3007C176.524 41.1007 179.591 29.634 179.591 24.3007C179.591 20.834 175.324 15.7674 172.524 15.7674C171.591 15.7674 169.591 18.034 168.258 20.7007Z" fill="#9C845E"/>
<path d="M73.7244 29.234C71.0577 42.7007 73.3244 49.5007 84.1244 60.3007L90.2577 66.3007V54.7007C90.2577 41.1007 88.2577 36.3007 79.9911 29.5007L74.6577 25.1007L73.7244 29.234Z" fill="#9C845E"/>
<path d="M214.524 31.5008C206.791 39.1008 204.924 44.0341 204.924 57.7675C204.924 66.1675 204.258 68.4341 199.458 77.7675C192.791 90.8341 190.791 93.1008 193.724 84.4341C198.258 70.5675 197.591 61.7675 191.058 53.7675L187.724 49.7675L185.591 55.1008C182.658 61.9008 183.458 73.1008 187.458 80.4341C192.658 90.3008 190.391 96.7008 176.258 112.434L170.258 119.101L173.058 112.434C177.324 102.834 177.191 91.6341 172.924 83.2341C171.058 79.6341 168.924 76.4341 168.124 76.1675C165.858 75.3675 160.791 86.1675 159.991 93.5008C159.324 99.5008 159.858 102.034 163.591 110.301C168.524 121.767 168.524 122.034 158.391 133.501C154.658 137.767 150.924 142.434 150.124 143.901C147.858 148.301 150.258 148.834 153.458 144.567C154.924 142.301 158.391 138.167 161.058 135.234C163.591 132.167 167.724 126.967 170.258 123.367C172.658 119.901 175.191 117.101 175.724 117.101C176.258 117.101 180.658 111.634 185.591 105.101C195.058 92.4341 195.191 92.3008 211.991 88.3008C215.858 87.3675 228.924 76.4341 228.924 74.1675C228.924 73.2341 225.991 72.9675 220.658 73.5008C214.391 74.0341 211.058 75.2341 206.658 78.4341C201.058 82.3008 200.791 82.4341 201.591 79.5008C203.458 73.5008 206.658 68.3008 212.258 62.3008C215.458 58.9675 219.058 54.1675 220.258 51.6341C223.058 46.4341 224.524 30.5675 222.658 27.1008C221.458 25.1008 220.524 25.6341 214.524 31.5008Z" fill="#9C845E"/>
<path d="M44.9243 53.234C44.9243 64.434 48.2576 70.9674 57.591 78.3007C61.7243 81.5007 64.9243 84.3007 64.6576 84.5674C63.7243 85.3674 48.391 80.034 39.591 75.9007C33.7243 73.1007 28.9243 71.7674 24.6576 71.7674C18.2576 71.7674 6.39097 75.634 1.72431 79.1007C-0.675692 80.9674 -0.675693 81.1007 2.39097 83.634C13.3243 92.7007 26.6576 94.1674 38.9243 87.7674C47.8576 83.1007 49.191 82.9674 62.2576 86.434C67.7243 87.9007 72.5243 89.1007 72.791 89.1007C73.0576 89.1007 71.7243 87.9007 69.8576 86.434C67.0576 84.1674 66.391 82.3007 65.591 74.1674C64.2576 60.7007 61.591 56.3007 49.3243 47.9007L44.9243 44.9674V53.234Z" fill="#9C845E"/>
<path d="M95.591 69.5008C90.791 71.1008 86.1244 72.9675 85.3244 73.5008C82.9244 75.1008 73.8577 89.1008 74.6577 89.9008C75.0577 90.3008 74.6577 93.2341 73.7244 96.1675C71.191 104.834 72.791 115.767 77.591 121.367C85.591 130.701 96.2577 134.834 101.324 130.567C102.791 129.367 103.591 129.501 104.924 131.101C108.124 134.834 111.591 133.901 123.724 125.901C131.191 120.967 131.724 120.167 131.324 114.167C131.058 110.567 131.858 108.301 133.991 106.034C138.391 101.367 138.258 88.9675 133.724 84.4341C131.991 82.7008 129.324 79.5008 127.724 77.3675C124.658 72.9675 116.124 68.4341 108.924 67.3675C105.991 66.8341 101.058 67.6341 95.591 69.5008ZM111.324 81.1008C116.258 82.4341 117.458 83.3675 119.724 88.1675C123.191 96.0341 122.924 100.967 118.258 108.301C113.991 114.967 106.258 119.634 100.658 118.967C98.9244 118.834 96.9244 118.567 95.991 118.567C93.3244 118.301 84.9244 109.501 84.9244 106.967C84.9244 104.967 85.7244 105.367 88.791 108.967C95.8577 117.501 109.991 116.567 115.724 107.234C120.658 99.2341 118.524 89.7675 110.658 84.5675C106.258 81.6341 104.924 81.3675 100.258 82.4341C90.5244 84.5675 84.2577 95.2341 89.991 100.034C96.391 105.501 107.591 100.834 107.591 92.5675C107.591 89.3675 107.991 88.9675 108.924 90.4341C110.924 93.6341 110.524 96.9675 107.458 101.367C104.791 105.101 104.258 105.234 95.991 104.834C85.8577 104.434 84.2577 102.701 85.591 94.1675C86.2577 90.4341 87.991 87.3675 90.791 84.8341C94.791 81.2341 101.458 78.4341 104.258 79.2341C105.058 79.5008 108.124 80.3008 111.324 81.1008ZM104.924 90.8341C104.924 91.3675 104.124 91.5008 103.324 90.9675C101.991 90.1675 101.991 90.4341 103.324 91.9008C104.124 92.8341 104.924 94.5675 104.791 95.6341C104.791 97.2341 104.258 96.9675 102.658 94.7008C100.391 91.5008 95.591 90.7008 95.591 93.5008C95.591 94.4341 96.391 96.0341 97.3244 96.9675C98.6577 98.3008 98.391 98.5675 96.2577 98.1675C92.2577 97.5008 92.2577 93.3675 96.2577 89.7675C99.191 86.9675 100.124 86.7008 102.258 88.1675C103.724 88.9675 104.924 90.1675 104.924 90.8341Z" fill="#9C845E"/>
<path d="M145.591 99.3674C145.591 113.901 145.058 130.567 144.391 136.301C143.058 148.434 144.924 149.367 147.724 138.167C149.591 130.301 150.258 82.9674 148.524 76.7007C146.258 68.7007 145.591 74.3007 145.591 99.3674Z" fill="#9C845E"/>
<path d="M227.991 89.9008C222.925 91.7674 215.991 98.3008 208.258 108.434C206.258 111.101 203.458 112.434 196.391 113.901C191.325 114.967 184.791 116.967 181.725 118.434C174.925 121.634 166.925 128.567 168.791 129.634C170.791 130.967 195.058 132.301 197.725 131.234C199.725 130.434 199.725 130.034 196.791 126.834C195.058 124.967 191.458 122.567 188.925 121.367C184.258 119.367 184.258 119.367 187.591 118.301C189.458 117.767 193.991 117.367 197.591 117.234C205.591 117.101 207.991 119.634 209.591 129.767C210.791 138.301 211.858 140.167 220.658 149.501C229.058 158.301 230.258 157.901 230.258 146.301C230.258 136.301 225.058 128.034 215.325 122.567C200.925 114.434 201.725 112.434 218.791 113.767C234.258 114.834 244.525 111.901 256.258 103.101C260.658 99.7674 264.658 97.1008 265.191 97.1008C268.125 97.1008 265.591 94.5674 259.991 91.7674C251.991 87.7674 236.258 86.8341 227.991 89.9008Z" fill="#9C845E"/>
<path d="M53.5911 90.7007C47.3244 92.8341 41.8578 97.6341 38.5244 103.634L35.4578 109.101H38.9244C47.5911 109.101 53.8578 106.167 60.9244 99.1007L67.9911 91.9007L64.3911 90.4341C60.1244 88.8341 58.9244 88.8341 53.5911 90.7007Z" fill="#9C845E"/>
<path d="M220.924 120.434C227.191 122.968 233.058 126.034 233.991 127.368C234.924 128.701 237.591 132.701 239.991 136.301C245.058 144.168 251.191 147.634 261.591 148.701L269.058 149.501L267.591 145.768C263.458 134.834 249.991 125.101 239.058 125.101C235.591 125.101 231.058 123.501 225.458 120.434C220.924 117.901 215.458 115.768 213.324 115.768C210.658 115.768 212.791 117.101 220.924 120.434Z" fill="#9C845E"/>
<path d="M20.9243 121.234L17.591 122.567L20.9243 125.101C25.7243 128.834 37.591 133.101 43.3243 133.101L48.2577 133.234L43.591 135.634C41.0577 136.967 34.791 138.567 29.591 139.101C18.5243 140.167 11.4577 143.767 5.32432 151.501C2.92432 154.567 0.924316 157.234 0.924316 157.634C0.924316 159.501 16.6577 158.167 21.7243 155.901C26.9243 153.501 36.9243 144.567 36.9243 142.301C36.9243 139.634 62.9243 129.234 64.791 131.234C65.191 131.634 64.6577 132.434 63.591 133.101C48.1243 141.767 42.2577 149.367 42.2577 161.101C42.2577 165.101 42.6577 169.767 43.191 171.501C43.991 174.567 44.2577 174.434 50.5243 168.167C58.9243 160.034 62.1243 153.901 63.191 143.767C64.1243 134.834 66.2577 132.034 74.1243 129.634L78.9243 128.034L71.991 127.901C68.2577 127.767 63.4577 128.434 61.4577 129.101C58.5243 130.301 57.591 130.034 56.1243 128.034C52.791 123.234 43.0577 119.767 33.3243 119.901C28.2577 119.901 22.791 120.567 20.9243 121.234Z" fill="#9C845E"/>
<path d="M126.791 131.901C128.658 135.101 131.324 139.767 132.524 142.034C134.524 146.034 138.258 148.167 138.258 145.367C138.258 142.701 127.591 127.101 125.591 126.567C123.458 126.167 123.724 126.967 126.791 131.901Z" fill="#9C845E"/>
<path d="M92.1243 144.967C87.191 147.101 84.9243 151.767 84.9243 159.901C84.9243 170.967 87.591 173.767 97.8576 173.634C103.724 173.634 108.524 172.301 117.858 168.301C124.658 165.501 130.258 162.701 130.258 162.034C130.258 160.301 116.124 160.967 107.724 163.234C101.724 164.701 98.9243 164.834 96.9243 163.767C92.791 161.501 93.7243 158.567 99.3243 156.167C104.258 154.034 108.258 154.301 127.324 157.901C131.324 158.701 131.724 158.434 131.324 156.301C131.058 154.834 127.324 152.034 121.991 149.234C115.191 145.767 111.191 144.701 103.991 144.301C99.0576 144.034 93.591 144.301 92.1243 144.967Z" fill="#9C845E"/>
<path d="M168.524 146.168C158.391 148.968 152.258 152.834 152.258 156.568C152.258 159.234 152.124 159.368 163.458 156.301C176.924 152.834 188.924 154.834 188.924 160.434C188.924 164.301 184.124 165.234 174.658 163.234C160.924 160.301 155.191 159.768 152.924 161.101C151.324 162.034 151.458 162.434 153.591 163.101C155.058 163.634 160.924 166.034 166.524 168.701C172.258 171.234 179.991 173.634 184.124 174.034C190.924 174.701 191.724 174.568 195.458 170.701C199.058 167.101 199.591 165.768 199.591 159.234C199.591 153.501 198.924 151.101 196.524 148.434C192.524 143.634 181.324 142.834 168.524 146.168Z" fill="#9C845E"/>
<path d="M135.058 154.701C132.524 158.167 132.391 161.501 134.258 165.234C135.324 167.101 137.058 167.767 141.591 167.767C148.124 167.767 150.258 165.634 150.258 158.834C150.258 153.634 147.991 151.767 142.124 151.767C138.391 151.767 136.524 152.567 135.058 154.701Z" fill="#9C845E"/>
<path d="M126.658 169.101C122.258 171.768 114.524 179.101 103.191 191.368C96.5245 198.568 88.2578 203.368 80.3911 204.701C74.5245 205.634 74.3911 206.434 79.5911 209.501C81.7245 210.834 84.2578 213.101 84.9245 214.568C87.0578 218.301 92.6578 217.768 100.924 212.701C108.924 208.034 116.258 199.234 122.391 187.368C124.658 182.968 128.124 177.101 130.258 174.168C135.858 166.568 134.258 164.434 126.658 169.101Z" fill="#9C845E"/>
<path d="M149.858 167.367C149.324 167.767 149.991 169.501 151.458 170.967C152.791 172.567 157.058 179.101 160.924 185.767C169.858 201.234 178.124 210.834 185.324 214.301C193.458 218.301 196.791 217.901 202.124 212.434C204.658 209.901 207.191 207.767 207.724 207.767C208.391 207.767 208.924 207.234 208.924 206.567C208.924 205.901 206.391 205.101 203.324 204.567C194.258 203.101 185.858 197.501 175.191 185.767C169.591 179.767 162.258 172.834 158.791 170.567C152.124 166.167 151.191 165.901 149.858 167.367Z" fill="#9C845E"/>
</svg>
